<?xml version="1.0" encoding="UTF-8" standalone="no"?>
<!-- Created with Inkscape (http://www.inkscape.org/) -->

<svg
   xmlns:osb="http://www.openswatchbook.org/uri/2009/osb"
   xmlns:dc="http://purl.org/dc/elements/1.1/"
   xmlns:cc="http://creativecommons.org/ns#"
   xmlns:rdf="http://www.w3.org/1999/02/22-rdf-syntax-ns#"
   xmlns:svg="http://www.w3.org/2000/svg"
   xmlns="http://www.w3.org/2000/svg"
   xmlns:sodipodi="http://sodipodi.sourceforge.net/DTD/sodipodi-0.dtd"
   xmlns:inkscape="http://www.inkscape.org/namespaces/inkscape"
   width="297mm"
   height="210mm"
   viewBox="0 0 297 210"
   version="1.1"
   id="svg3783"
   inkscape:version="0.92.3 (2405546, 2018-03-11)"
   sodipodi:docname="fulva-bar.svg"
   inkscape:export-filename="C:\Users\eric-\gatsby\www\src\assets\gatsby-icon.png"
   inkscape:export-xdpi="96"
   inkscape:export-ydpi="96">
  <sodipodi:namedview
     id="base"
     pagecolor="#ffffff"
     bordercolor="#666666"
     borderopacity="1.0"
     inkscape:pageopacity="0.0"
     inkscape:pageshadow="2"
     inkscape:zoom="0.24748738"
     inkscape:cx="730.12688"
     inkscape:cy="410.43916"
     inkscape:document-units="mm"
     inkscape:current-layer="layer1"
     showgrid="true"
     inkscape:window-width="1088"
     inkscape:window-height="403"
     inkscape:window-x="783"
     inkscape:window-y="318"
     inkscape:window-maximized="0">
    <inkscape:grid
       type="xygrid"
       id="grid3829" />
  </sodipodi:namedview>
  <defs
     id="defs3777">
    <linearGradient
       id="linearGradient6096"
       osb:paint="solid">
      <stop
         style="stop-color:#000000;stop-opacity:1;"
         offset="0"
         id="stop6094" />
    </linearGradient>
  </defs>
  <metadata
     id="metadata3780">
    <rdf:RDF>
      <cc:Work
         rdf:about="">
        <dc:format>image/svg+xml</dc:format>
        <dc:type
           rdf:resource="http://purl.org/dc/dcmitype/StillImage" />
        <dc:title />
      </cc:Work>
    </rdf:RDF>
  </metadata>
  <g
     id="layer1"
     inkscape:groupmode="layer"
     inkscape:label="Layer 1"
     transform="translate(0,-87)">
    <flowRoot
       xml:space="preserve"
       id="flowRoot4640"
       style="fill:black;fill-opacity:1;stroke:none;font-family:sans-serif;font-style:normal;font-weight:normal;font-size:40px;line-height:1.25;letter-spacing:0px;word-spacing:0px"><flowRegion
         id="flowRegion4642"><rect
           id="rect4644"
           width="230"
           height="110"
           x="130"
           y="343.70081" /></flowRegion><flowPara
         id="flowPara4646" /></flowRoot>    <g
       id="text4638"
       style="font-style:normal;font-weight:normal;font-size:10.14131165px;line-height:1.25;font-family:sans-serif;letter-spacing:0px;word-spacing:0px;fill:#000000;fill-opacity:1;stroke:none;stroke-width:0.2535328"
       transform="matrix(6.863742,0,0,7.303724,-283.33684,-1114.2148)"
       aria-label="Fulva">
      <path
         inkscape:connector-curvature="0"
         id="path6172"
         style="font-style:normal;font-variant:normal;font-weight:normal;font-stretch:normal;font-family:'Cooper Black';-inkscape-font-specification:'Cooper Black, ';stroke-width:0.2535328"
         d="m 52.228145,179.40601 q -0.341675,0 -0.420904,0.17331 -0.05942,0.12875 -0.113891,0.50508 -0.04952,0.37634 -0.04952,0.68335 0,0.18322 0.118843,0.25255 0.118844,0.0693 0.445663,0.0693 0.21788,0 0.321868,-0.0792 0.103988,-0.0792 0.143602,-0.26739 0.113892,-0.53975 0.465471,-0.53975 0.604121,0 0.604121,1.44593 0,0.91608 -0.262446,1.34689 -0.158458,0.26245 -0.43576,0.26245 -0.292157,0 -0.336723,-0.3912 -0.02476,-0.25254 -0.06437,-0.35653 -0.03466,-0.10399 -0.138651,-0.19807 -0.16341,-0.15351 -0.475374,-0.15351 -0.222832,0 -0.302061,0.0792 -0.07923,0.0792 -0.06932,0.30206 0,0.0396 -0.005,0.46052 0,0.85667 0.178265,1.04483 0.05942,0.0743 0.118844,0.099 0.06437,0.0198 0.326819,0.0594 0.128748,0.0198 0.21788,0.1337 0.08913,0.11389 0.08913,0.26245 0,0.38129 -0.445663,0.49023 -0.643736,0.1535 -1.807412,0.1535 -1.020073,0 -1.406314,-0.11884 -0.173314,-0.0545 -0.282254,-0.19807 -0.10894,-0.14361 -0.10894,-0.31692 0,-0.21788 0.158458,-0.35158 0.03961,-0.0297 0.27235,-0.12379 0.277302,-0.10894 0.331771,-0.50509 0.08913,-0.60907 0.08913,-2.77796 0,-0.9359 -0.06437,-1.2132 -0.06437,-0.2773 -0.311965,-0.38624 -0.24759,-0.10894 -0.326819,-0.18817 -0.07428,-0.0842 -0.07428,-0.23769 0,-0.21788 0.212927,-0.36148 0.212928,-0.14855 0.524893,-0.14855 0.198072,0 0.579362,0.0297 0.807145,0.0644 1.931206,0.0644 1.797508,0 2.421437,-0.099 0.08418,-0.01 0.128747,-0.01 0.173313,0 0.331771,0.19807 0.43576,0.55461 0.43576,1.22805 0,0.30702 -0.143603,0.49023 -0.143602,0.18322 -0.376338,0.18322 -0.173313,0 -0.262446,-0.0693 -0.08913,-0.0693 -0.455566,-0.48528 -0.222832,-0.2575 -0.539748,-0.33673 -0.311964,-0.0792 -1.168628,-0.10398 z" />
      <path
         inkscape:connector-curvature="0"
         id="path6174"
         style="font-style:normal;font-variant:normal;font-weight:normal;font-stretch:normal;font-family:'Cooper Black';-inkscape-font-specification:'Cooper Black, ';stroke-width:0.2535328"
         d="m 57.897971,180.49541 v 2.68388 q 0,0.86161 0.569458,0.86161 0.143603,0 0.282253,-0.0792 0.138651,-0.0842 0.193121,-0.20302 0.10894,-0.23769 0.10894,-1.05969 0,-0.8121 -0.05447,-1.1092 -0.01981,-0.1238 -0.06932,-0.17827 -0.04952,-0.0594 -0.188169,-0.1337 -0.282254,-0.14855 -0.282254,-0.37634 0,-0.30701 0.485278,-0.42585 0.921037,-0.22779 1.817315,-0.22779 0.500133,0 0.500133,0.52985 0,0.0545 -0.005,0.22283 -0.0099,0.23769 -0.01486,0.57936 v 2.18375 q 0,0.16836 0.287205,0.30701 0.242639,0.11885 0.242639,0.34663 0,0.44566 -1.054736,0.6883 -0.618977,0.1436 -1.198339,0.1436 -0.237687,0 -0.326819,-0.0545 -0.08418,-0.0545 -0.09904,-0.21292 -0.02476,-0.30702 -0.188168,-0.30702 -0.05942,0 -0.10894,0.0297 -0.04952,0.0247 -0.302061,0.19807 -0.500133,0.34167 -1.074543,0.34167 -0.950748,0 -1.341941,-0.54965 -0.331772,-0.46052 -0.331772,-1.54992 0,-0.40604 0.005,-0.69325 0,-0.16836 0,-0.22778 0,-0.42586 -0.07923,-0.62393 -0.07428,-0.20303 -0.277301,-0.31692 -0.193121,-0.099 -0.247591,-0.15845 -0.04952,-0.0594 -0.04952,-0.16341 0,-0.37634 0.569458,-0.50014 0.970556,-0.21293 1.941111,-0.21293 0.292157,0 0.292157,0.2476 z" />
      <path
         inkscape:connector-curvature="0"
         id="path6176"
         style="font-style:normal;font-variant:normal;font-weight:normal;font-stretch:normal;font-family:'Cooper Black';-inkscape-font-specification:'Cooper Black, ';stroke-width:0.2535328"
         d="m 64.884977,181.21837 v 1.58953 q 0,1.05474 0.02971,1.22805 0.03466,0.17331 0.247591,0.2674 0.183217,0.0792 0.242639,0.14855 0.06437,0.0693 0.06437,0.19808 0,0.16341 -0.118843,0.2971 -0.113892,0.1337 -0.307013,0.18817 -0.35653,0.10894 -1.20329,0.10894 -0.9557,0 -1.341941,-0.1436 -0.178265,-0.0644 -0.292157,-0.19807 -0.113892,-0.13865 -0.113892,-0.28721 0,-0.11884 0.05942,-0.18321 0.06437,-0.0644 0.27235,-0.15351 0.19312,-0.0842 0.237687,-0.46052 0.07923,-0.64373 0.07923,-1.83217 0,-1.20824 -0.06933,-1.55487 -0.06932,-0.34663 -0.346627,-0.51499 -0.207976,-0.11884 -0.287205,-0.22283 -0.07428,-0.10894 -0.07428,-0.26244 0,-0.24264 0.232735,-0.42091 0.232736,-0.18322 0.742772,-0.33672 0.341675,-0.10399 0.886375,-0.19807 0.544699,-0.0941 0.79229,-0.0941 0.391193,0 0.391193,0.48528 0,0.15846 -0.04952,0.72792 -0.06437,0.88637 -0.07428,1.62419 z" />
      <path
         inkscape:connector-curvature="0"
         id="path6178"
         style="font-style:normal;font-variant:normal;font-weight:normal;font-stretch:normal;font-family:'Cooper Black';-inkscape-font-specification:'Cooper Black, ';stroke-width:0.2535328"
         d="m 70.812297,181.76307 -1.282519,2.49571 q -0.297109,0.57936 -0.505085,0.80715 -0.207976,0.22283 -0.445663,0.22283 -0.232736,0 -0.376338,-0.16836 -0.302061,-0.33673 -0.529844,-0.76258 l -1.406315,-2.66903 q -0.113891,-0.21788 -0.222831,-0.31196 -0.103988,-0.099 -0.292157,-0.14856 -0.376338,-0.10894 -0.376338,-0.40605 0,-0.30206 0.46547,-0.44071 0.465471,-0.13865 1.470689,-0.13865 0.841808,0 1.237953,0.1238 0.401097,0.11884 0.401097,0.37138 0,0.17827 -0.188169,0.34168 -0.118844,0.10894 -0.153507,0.16341 -0.03466,0.0545 -0.03466,0.13865 0,0.16836 0.21788,0.55955 0.217879,0.38129 0.406048,0.38129 0.123795,0 0.203024,-0.0941 0.07923,-0.0941 0.287206,-0.48528 0.153506,-0.2872 0.153506,-0.43576 0,-0.11884 -0.158458,-0.28225 -0.168362,-0.17827 -0.168362,-0.33177 0,-0.23769 0.311964,-0.34168 0.316916,-0.10399 1.034929,-0.10399 1.01017,0 1.01017,0.43576 0,0.25255 -0.361483,0.36644 -0.282253,0.0891 -0.386241,0.19312 -0.09904,0.10399 -0.311964,0.51994 z" />
      <path
         inkscape:connector-curvature="0"
         id="path6180"
         style="font-style:normal;font-variant:normal;font-weight:normal;font-stretch:normal;font-family:'Cooper Black';-inkscape-font-specification:'Cooper Black, ';stroke-width:0.2535328"
         d="m 74.600433,180.2082 q 0.861616,0 1.460785,0.43576 0.316916,0.23273 0.440711,0.5348 0.128748,0.2971 0.128748,0.822 l -0.0099,0.73782 q 0,0.76753 0.10894,0.99531 0.05447,0.10894 0.103988,0.13865 0.04952,0.0297 0.207976,0.0545 0.158458,0.0248 0.158458,0.20798 0,0.23768 -0.193121,0.49518 -0.188169,0.25749 -0.490229,0.43081 -0.371386,0.21788 -0.777435,0.21788 -0.51994,0 -0.822001,-0.35653 -0.103988,-0.12875 -0.19312,-0.12875 -0.09904,0 -0.262446,0.12379 -0.495182,0.36149 -1.124062,0.36149 -0.648687,0 -1.049784,-0.27731 -0.262446,-0.18321 -0.415952,-0.47537 -0.153506,-0.29711 -0.153506,-0.61898 0,-0.51498 0.415952,-0.91113 0.648687,-0.62393 1.94111,-0.62888 0.287205,0 0.361483,-0.0545 0.07428,-0.0594 0.07428,-0.2674 0,-0.52489 -0.10894,-0.75762 -0.10894,-0.23769 -0.356531,-0.23769 -0.148554,0 -0.267397,0.0891 -0.113892,0.0891 -0.287206,0.32682 -0.440711,0.62888 -0.921037,0.62888 -0.242638,0 -0.396145,-0.1436 -0.153506,-0.1436 -0.153506,-0.37634 0,-0.23769 0.188169,-0.47537 0.193121,-0.23769 0.51994,-0.41596 0.896278,-0.47537 1.871785,-0.47537 z m -0.331771,2.8671 q -0.21788,0 -0.38129,0.17826 -0.158458,0.17827 -0.158458,0.42586 0,0.23769 0.113892,0.38624 0.113892,0.1436 0.302061,0.1436 0.396145,0 0.396145,-0.66849 0,-0.27235 -0.05942,-0.36643 -0.05447,-0.0941 -0.212928,-0.099 z" />
    </g>
    <path
       style="fill:none;fill-opacity:1;stroke:#000000;stroke-width:12.09700966;stroke-linecap:round;stroke-linejoin:miter;stroke-miterlimit:4;stroke-dasharray:none;stroke-opacity:1"
       d="m 31.75,138.14422 c 0,105.93911 0,105.93911 0,105.93911"
       id="path4648"
       inkscape:connector-curvature="0" />
    <path
       style="fill:none;stroke:#000000;stroke-width:12.09700966;stroke-linecap:round;stroke-linejoin:round;stroke-miterlimit:4;stroke-dasharray:none;stroke-opacity:1"
       d="M 264.58333,138.14422 V 244.08333"
       id="path6088"
       inkscape:connector-curvature="0" />
    <path
       style="fill:none;stroke:#000000;stroke-width:11.45119953;stroke-linecap:square;stroke-linejoin:miter;stroke-miterlimit:4;stroke-dasharray:none;stroke-opacity:1"
       d="m 36.06475,165.36977 c 223.22692,0 223.22692,0 223.22692,0"
       id="path6090"
       inkscape:connector-curvature="0" />
    <path
       style="fill:none;stroke:#000000;stroke-width:12.89584351;stroke-linecap:round;stroke-linejoin:miter;stroke-miterlimit:4;stroke-dasharray:none;stroke-opacity:1"
       d="m 7.9374982,132.95833 c 283.1041318,0 283.1041318,0 283.1041318,0"
       id="path6090-8"
       inkscape:connector-curvature="0" />
  </g>
</svg>
